<?xml version="1.0" encoding="UTF-8"?>
<!DOCTYPE svg PUBLIC "-//W3C//DTD SVG 1.1//EN" "http://www.w3.org/Graphics/SVG/1.1/DTD/svg11.dtd">
<!-- Creator: CorelDRAW -->
<svg xmlns="http://www.w3.org/2000/svg" xml:space="preserve" width="0.333331in" height="0.333331in" style="shape-rendering:geometricPrecision; text-rendering:geometricPrecision; image-rendering:optimizeQuality; fill-rule:evenodd; clip-rule:evenodd"
viewBox="0 0 0.333331 0.333331"
 xmlns:xlink="http://www.w3.org/1999/xlink">
 <defs>
  <style type="text/css">
   <![CDATA[
    .fil1 {fill:#E6E7E8}
    .fil0 {fill:#FEFEFE}
    .fil2 {fill:#107FF2}
   ]]>
  </style>
 </defs>
 <g id="Layer_x0020_1">
  <metadata id="CorelCorpID_0Corel-Layer"/>
  <g id="_477753208">
   <path id="_482192144" class="fil0" d="M0.101228 0.287862l0 0c-0.00480709,0 -0.00870472,-0.00389764 -0.00870472,-0.00870472l0 -0.00580315c0,-0.00480709 0.00389764,-0.00870472 0.00870472,-0.00870472l0 0c0.00480709,0 0.00870472,0.00389764 0.00870472,0.00870472l0 0.00580315c0,0.00480709 -0.00389764,0.00870472 -0.00870472,0.00870472z"/>
   <path id="_482192048" class="fil0" d="M0.235886 0.287862l0 0c-0.00480709,0 -0.00870472,-0.00389764 -0.00870472,-0.00870472l0 -0.00580315c0,-0.00480709 0.00389764,-0.00870472 0.00870472,-0.00870472l0 0c0.00480709,0 0.00870472,0.00389764 0.00870472,0.00870472l0 0.00580315c0,0.00480709 -0.00389764,0.00870472 -0.00870472,0.00870472z"/>
   <g>
    <path id="_482192096" class="fil1" d="M0.0395118 0.263646l-0.0205866 -0.00823228c-0.0017874,-0.000716535 -0.00296063,-0.00244882 -0.00296063,-0.00437402l0 -0.00622835c0,-0.00260236 0.00211024,-0.0047126 0.00470866,-0.0047126l0.0235472 0 -0.00470866 0.0235472z"/>
   </g>
   <g>
    <path id="_482192408" class="fil1" d="M0.293815 0.263646l0.0205866 -0.00823228c0.0017874,-0.000716535 0.00296063,-0.00244882 0.00296063,-0.00437402l0 -0.00622835c0,-0.00260236 -0.00211024,-0.0047126 -0.00470866,-0.0047126l-0.0235472 0 0.00470866 0.0235472z"/>
   </g>
   <path id="_482192480" class="fil0" d="M0.282126 0.230909c-0.0287559,-0.00377165 -0.0579173,-0.00377165 -0.0866693,0 -0.00828346,0.00108661 -0.014563,0.00751181 -0.0160039,0.0153465 -0.00372441,-0.00241732 -0.0081063,-0.0038622 -0.0127913,-0.0038622 -0.00468504,0 -0.00906299,0.00144488 -0.0127874,0.0038622 -0.00144488,-0.00783465 -0.00772047,-0.0142598 -0.0160039,-0.0153465 -0.0287559,-0.00377165 -0.0579173,-0.00377165 -0.0866693,0 -0.0101929,0.00133858 -0.0174921,0.0107402 -0.0162638,0.0209528 0.000661417,0.00550787 0.00132677,0.0108425 0.00198819,0.016185 0.00132283,0.0105906 0.00264173,0.0212165 0.00396457,0.0332205 0.00133465,0.0120197 0.0113819,0.021126 0.0233976,0.021185l0.0605157 0c7.87402e-006,0 1.9685e-005,0 2.75591e-005,0 0.0119803,-6.69291e-005 0.0220197,-0.0091811 0.0233543,-0.0211929 0.00132283,-0.0120472 0.00265354,-0.0227087 0.00397244,-0.0333425 0.000208661,-0.00167323 0.000417323,-0.00338976 0.000625984,-0.00507087 5.51181e-005,-0.000153543 0.00015748,-0.000279528 0.00019685,-0.000440945 0.0016063,-0.00623622 0.00722835,-0.0105906 0.0136811,-0.0105906 0.00644488,0 0.0120709,0.00434252 0.0136772,0.0105669 3.93701e-005,0.000149606 0.000145669,0.000259843 0.00019685,0.000401575 0.000212598,0.00170079 0.00042126,0.00344094 0.000633858,0.00513386 0.0013189,0.0106339 0.00264567,0.0212953 0.00397244,0.0333465 0.00133465,0.0120236 0.0113819,0.0211299 0.0233976,0.021189l0.0605197 0c7.87402e-006,0 1.9685e-005,0 2.75591e-005,0 0.0119803,-6.69291e-005 0.0220157,-0.0091811 0.0233504,-0.0211929 0.00132283,-0.0119961 0.00264173,-0.022622 0.00396063,-0.0332126 0.000665354,-0.00534252 0.00133071,-0.0106811 0.00199213,-0.016185 0.00122835,-0.0102126 -0.00606693,-0.0196142 -0.0162638,-0.0209528zm-0.143303 0.0693189c-0.000807087,0.00725591 -0.00683465,0.0127559 -0.0140315,0.0128071l-0.0604843 0c-0.00720472,-3.14961e-005 -0.013248,-0.00554331 -0.0140512,-0.0128031 -0.00133071,-0.0120512 -0.00266142,-0.0227165 -0.00398031,-0.0333425 -0.000665354,-0.00533465 -0.00132677,-0.0106614 -0.00198425,-0.0161496 -0.00061811,-0.00511811 0.0030315,-0.00982283 0.00813386,-0.0104921 0.0139764,-0.00183071 0.0280394,-0.00274803 0.0421142,-0.00274803 0.0140669,0 0.0281378,0.000917323 0.0421063,0.00274803 0.0051063,0.000669291 0.00875591,0.00537402 0.00813386,0.0104921 -0.000649606,0.00544094 -0.00131102,0.0107244 -0.0019685,0.0160197 -0.00132677,0.0106732 -0.00265748,0.021374 -0.00398819,0.0334685zm0.150217 -0.0494882c-0.00065748,0.00548819 -0.00132283,0.010815 -0.00198819,0.0161496 -0.0013189,0.010626 -0.00264961,0.0212913 -0.00398031,0.0333386 -0.00080315,0.00725591 -0.00683071,0.0127559 -0.0140236,0.0128071l-0.0604843 0c-0.00720866,-3.14961e-005 -0.013252,-0.00554331 -0.0140591,-0.0128031 -0.00133071,-0.0120945 -0.00266142,-0.0227992 -0.00398819,-0.0334724 -0.00065748,-0.00529134 -0.0013189,-0.0105787 -0.00197244,-0.0160236 -0.00061811,-0.00511417 0.0030315,-0.0098189 0.0081378,-0.0104882 0.0139724,-0.00183071 0.0280394,-0.00274409 0.0421063,-0.00274409 0.0140709,0 0.0281417,0.000913386 0.0421142,0.00274409 0.00509843,0.000669291 0.00875197,0.00537402 0.0081378,0.0104921z"/>
   <path id="_482192384" class="fil0" d="M0.311744 0.161059c0.000204724,0.0127638 -0.00174409,0.0256417 -0.00512205,0.037937 -0.00225591,0.00815354 -0.00648819,0.0266378 -0.0148583,0.0304724 -0.00449213,-0.0080315 -0.00108661,-0.0186929 -0.00177165,-0.0274213 -0.00069685,-0.00895276 -0.00151181,-0.0194213 -0.00580315,-0.0276457 -0.0088937,-0.0170866 -0.0260906,-0.0294488 -0.0188031,-0.0502087 0.00534646,-0.0152008 0.0219016,-0.0121417 0.0322362,-0.00284646 0.0107835,0.00967717 0.0138937,0.0258701 0.014122,0.0397126z"/>
   <path id="_482192600" class="fil1" d="M0.307902 0.137437c-0.00217717,-0.00613386 -0.00545669,-0.0117598 -0.0102795,-0.0160906 -0.00283465,-0.00255512 -0.00612992,-0.00462992 -0.00954724,-0.00599606 -0.0104134,0.00624016 -0.0183937,0.0185236 -0.0217126,0.0307047 0.00425197,0.0096378 0.0125197,0.0181457 0.0178268,0.0283465 0.0042874,0.00822047 0.0051063,0.0186929 0.00580315,0.0276457 0.000673228,0.00855512 -0.00256299,0.0189567 0.00152362,0.0269213 0.00914567,-0.0134921 0.00724409,-0.0410197 0.0041378,-0.0531614 -0.00219685,-0.0086063 -0.00603937,-0.015248 -0.00219685,-0.0240827 0.00237795,-0.00548819 0.00827953,-0.0114606 0.0144449,-0.0142874z"/>
   <path id="_482192288" class="fil0" d="M0.0806772 0.0708346c-0.00669291,0.0106929 -0.00874803,0.0251299 -0.0039252,0.0369488 0.00511417,0.0125354 0.0182874,0.015437 0.0295906,0.0206575 0.0123622,0.00569291 0.0229724,0.0115787 0.0336024,0.0201181 0.0110157,0.00883071 0.0220354,0.0183858 0.0358346,0.0224921 0.0206535,0.00615748 0.0435512,0.00577953 0.0645512,0.00164567 0.0531614,-0.0104803 0.0886732,-0.0899213 0.0551299,-0.137063 0.00387795,0.0258386 -0.0123937,0.0305709 -0.0306654,0.0421654 0.0184961,-0.0208858 0.00424409,-0.0613858 -0.0217126,-0.073311 0.0325945,0.0725236 -0.0514803,0.0583307 -0.0924528,0.0531063 -0.0228937,-0.0029252 -0.0554094,-0.00999213 -0.0699528,0.0132402z"/>
   <path id="_482192576" class="fil0" d="M0.0518622 0.0855906c0.00702362,-0.000716535 0.0144134,0.000968504 0.0205276,0.00405118 0.00749213,0.00378346 0.0154213,0.00729134 0.0218819,0.0127677 0.00422835,0.00359055 0.0138898,0.015063 0.0122441,0.0212874 -0.00127165,0.00475984 -0.00567717,0.00244094 -0.00983465,0.00225984 -0.00764173,-0.000338583 -0.0164606,-1.5748e-005 -0.023185,0.00325591 -0.0232835,0.0112992 -0.0295709,0.042315 -0.0334606,0.065122 -0.000877953,0.00511811 -0.000633858,0.0121181 -0.00437402,0.0159843 -0.01,-0.00711417 -0.00973228,-0.030378 -0.0118189,-0.0415197 -0.00434252,-0.0232126 -0.00532283,-0.0555787 0.0111693,-0.0747323 0.00451575,-0.00523622 0.0105315,-0.00782283 0.0168504,-0.00847638z"/>
   <path id="_482192216" class="fil1" d="M0.295465 0.0356339c0.000492126,0.00330709 0.000649606,0.00627165 0.000519685,0.00895276 0.00231496,0.0091811 0.00476378,0.0180709 0.00332677,0.028437 -0.00180315,0.0129764 -0.00558661,0.0257008 -0.0118543,0.0375 -0.00805906,0.0151732 -0.0193504,0.031315 -0.035937,0.0382008 -0.0189646,0.00786614 -0.0352323,0.0117047 -0.0556299,0.00690551 -0.0191575,-0.0045 -0.0348386,-0.0143661 -0.0528268,-0.0224094 -0.0175118,-0.00783858 -0.0345512,-0.0222756 -0.0547126,-0.0207598 -0.00256299,0.000200787 -0.00523228,0.000688976 -0.00795276,0.00141339 0.00632677,0.00760236 0.016752,0.0103189 0.0259449,0.0145669 0.0123622,0.00569291 0.0229724,0.0115787 0.0336024,0.0201181 0.0110157,0.00883071 0.0220354,0.0183858 0.0358346,0.0224921 0.0206535,0.00615354 0.0435512,0.00577953 0.0645512,0.00164567 0.0531614,-0.0104843 0.0976732,-0.0949843 0.0551339,-0.137063z"/>
   <path id="_469877552" class="fil1" d="M0.0883504 0.112461c-0.0160157,0.0012126 -0.0363386,0.0132283 -0.0436614,0.0281063 -0.0102638,0.0208543 -0.0064685,0.0436496 -0.00669291,0.0658189 0.00134646,-0.00375197 0.00140945,-0.00838189 0.00203543,-0.0120472 0.00388976,-0.0228071 0.0101811,-0.0538268 0.0334567,-0.065126 0.00673228,-0.00326772 0.0155512,-0.00359449 0.023189,-0.00325591 0.00415748,0.000185039 0.00856299,0.0025 0.00983465,-0.00225984 0.000677165,-0.00255512 -0.000574803,-0.00600787 -0.00256299,-0.00942126 -0.00501969,-0.00145276 -0.0101969,-0.00222835 -0.0155984,-0.00181496z"/>
   <path id="_470839272" class="fil2" d="M0.0628858 0.105118c0.00981496,-0.000669291 0.0137283,-0.00875591 0.00365748,-0.0131496 -0.0109921,-0.00479528 -0.0230472,0.00183465 -0.0288189,0.0112283 -0.00566535,0.00924016 -0.00359449,0.016248 -0.00490945,0.0257402 0.00221654,-0.0159685 0.0157402,-0.022815 0.0300709,-0.0238189z"/>
   <path id="_470839656" class="fil2" d="M0.216035 0.114634c-0.0207835,0.00948819 -0.0358976,0.00344094 -0.0556496,-0.00505512 -0.00852362,-0.00366142 -0.0168858,-0.00644488 -0.0254961,-0.0102795 -0.0165039,-0.00735433 -0.032689,-0.0153543 -0.0508346,-0.00711811 -0.000543307,-0.0101654 0.00542126,-0.0199016 0.0133543,-0.0258543 0.00644094,-0.00483071 0.0153031,-0.00740157 0.023252,-0.00701969 0.0132008,0.000625984 0.027937,0.0114134 0.0403976,0.00498819 -0.00699606,0.00602756 -0.0139764,0.00912598 -0.0231496,0.00824409 -0.00718504,-0.000704724 -0.0188504,-0.00474016 -0.0234173,0.00333071 0.0162835,-0.00835433 0.0430945,0.014748 0.057122,0.0205984 0.0211693,0.00883858 0.0449646,0.0166614 0.0646142,-0.000362205 -0.00692126,0.00792913 -0.0103543,0.0140354 -0.0201929,0.0185276z"/>
  </g>
 </g>
</svg>
